<?xml version="1.0" encoding="UTF-8"?>
<svg id="Layer_1" data-name="Layer 1" xmlns="http://www.w3.org/2000/svg" viewBox="0 0 71.08 22.98">
  <defs>
    <style>
      .cls-1 {
        fill: #0f1e43;
      }

      .cls-2 {
        fill: #bef264;
      }
    </style>
  </defs>
  <g>
    <path class="cls-1" d="M1.12.83h2.93l1.98,4.34V.83h2.22v8.4h-2.82l-2.09-4.58v4.58H1.12V.83Z"/>
    <path class="cls-1" d="M9.56.83h5.87v2.1h-3.65v1.04h3.17v2.1h-3.17v1.06h3.65v2.1h-5.87V.83Z"/>
    <path class="cls-1" d="M21.28,9.23l-1.25-2.14-1.24,2.14h-2.58l2.53-4.36-2.35-4.04h2.58l1.18,2.02,1.16-2.02h2.58l-2.46,4.22,2.42,4.18h-2.58Z"/>
    <path class="cls-1" d="M26.78,2.93h-2.17V.83h6.55v2.1h-2.16v6.3h-2.22V2.93Z"/>
    <path class="cls-1" d="M35.48.83h2.88c.53,0,1,.06,1.43.19.42.13.79.31,1.09.55.3.24.53.53.7.87.16.34.25.72.25,1.15s-.08.79-.25,1.13c-.16.34-.4.63-.7.87-.3.24-.66.43-1.09.56-.42.13-.9.2-1.43.2h-.66v2.88h-2.22V.83ZM38.76,4.25c.25,0,.44-.05.58-.16.14-.1.2-.25.2-.44v-.19c0-.17-.07-.3-.2-.39-.14-.09-.33-.14-.58-.14h-1.06v1.32h1.06Z"/>
    <path class="cls-1" d="M42.6,5.03c0-.66.09-1.25.28-1.78s.45-.99.79-1.36c.34-.38.75-.67,1.24-.87.49-.2,1.03-.31,1.63-.31s1.14.1,1.63.31c.49.2.9.49,1.24.87.34.38.6.83.79,1.36s.28,1.13.28,1.78-.09,1.25-.28,1.78c-.19.53-.45.99-.79,1.36-.34.38-.75.67-1.24.87-.49.2-1.03.31-1.63.31s-1.14-.1-1.63-.31c-.49-.2-.9-.49-1.24-.87-.34-.38-.6-.83-.79-1.36-.19-.53-.28-1.13-.28-1.78ZM46.55,7.19c.51,0,.92-.17,1.22-.5.3-.33.45-.78.45-1.34v-.64c0-.57-.15-1.02-.45-1.35-.3-.33-.71-.5-1.22-.5s-.92.17-1.22.5c-.3.33-.45.78-.45,1.35v.64c0,.56.15,1.01.45,1.34.3.33.71.5,1.22.5Z"/>
    <path class="cls-2" d="M52.62.83h0c.61,0,1.11.5,1.11,1.11v6.18c0,.61-.5,1.11-1.11,1.11h0c-.61,0-1.11-.5-1.11-1.11V1.94c0-.61.5-1.11,1.11-1.11Z"/>
    <path class="cls-1" d="M55.05.83h2.93l1.98,4.34V.83h2.22v8.4h-2.82l-2.09-4.58v4.58h-2.22V.83Z"/>
    <path class="cls-1" d="M65.37,2.93h-2.17V.83h6.55v2.1h-2.16v6.3h-2.22V2.93Z"/>
  </g>
  <g>
    <path class="cls-1" d="M3.74,16.59l1.92,5.6h-.38l-.47-1.37h-2.59l-.47,1.37h-.38l1.92-5.6h.46ZM4.7,20.5l-1.18-3.45h-.02l-1.18,3.45h2.38Z"/>
    <path class="cls-1" d="M11.69,19.39c0-.43.06-.82.17-1.17.11-.35.27-.65.47-.91s.45-.45.73-.59c.28-.14.59-.21.93-.21.3,0,.59.05.85.16s.49.25.69.44c.2.19.36.42.49.69.13.27.21.57.25.89h-.4c-.03-.27-.1-.52-.21-.74-.11-.22-.24-.42-.4-.58s-.35-.28-.56-.37c-.21-.09-.44-.13-.69-.13-.28,0-.53.06-.77.18-.23.12-.44.29-.61.51-.17.22-.3.48-.4.78s-.14.63-.14,1v.11c0,.36.05.69.14,1s.23.56.4.78c.17.22.37.39.61.51.23.12.49.18.77.18.25,0,.48-.04.69-.13.21-.09.4-.21.56-.37.16-.16.3-.35.4-.58.11-.22.18-.47.21-.74h.4c-.04.33-.12.62-.25.89s-.29.5-.49.69c-.2.19-.43.34-.69.44s-.54.16-.85.16c-.34,0-.65-.07-.93-.21-.28-.14-.53-.34-.73-.59-.2-.25-.36-.56-.47-.91-.11-.35-.17-.74-.17-1.17Z"/>
    <path class="cls-1" d="M24.76,16.59l1.92,5.6h-.38l-.47-1.37h-2.59l-.47,1.37h-.38l1.92-5.6h.46ZM25.72,20.5l-1.18-3.45h-.02l-1.18,3.45h2.38Z"/>
    <path class="cls-1" d="M33.07,16.59h1.46c.37,0,.7.06.99.19.29.13.54.31.74.55.2.24.36.53.47.88.11.34.16.73.16,1.17s-.05.83-.16,1.18c-.11.35-.27.65-.47.89s-.45.43-.74.56c-.29.13-.62.19-.99.19h-1.46v-5.6ZM36.5,19.37c0-.8-.18-1.41-.53-1.83s-.87-.63-1.55-.63h-.98v4.96h.98c.68,0,1.2-.21,1.55-.63.35-.42.53-1.03.53-1.83v-.03Z"/>
    <path class="cls-1" d="M43.37,16.59h3.35v.32h-2.99v2.31h2.67v.32h-2.67v2.33h2.99v.32h-3.35v-5.6Z"/>
    <path class="cls-1" d="M53.43,16.59h.39l2.09,5.12,2.08-5.12h.39v5.6h-.36v-4.71l-1.92,4.71h-.39l-1.92-4.71v4.71h-.36v-5.6Z"/>
    <path class="cls-1" d="M68.77,16.59h.39l-1.99,3.58v2.02h-.36v-2.02l-1.99-3.58h.39l1.78,3.15h.02l1.77-3.15Z"/>
  </g>
  <g>
    <circle class="cls-1" cx="52.84" cy="12.87" r="1.32"/>
    <rect class="cls-2" x="1.33" y="12.07" width="49.38" height="1.61" rx=".76" ry=".76"/>
    <rect class="cls-2" x="54.97" y="12.11" width="15" height="1.53" rx=".76" ry=".76"/>
  </g>
</svg>