<?xml version="1.0" encoding="UTF-8"?>
<svg id="Layer_1" data-name="Layer 1" xmlns="http://www.w3.org/2000/svg" viewBox="0 0 102.7 30.71">
  <defs>
    <style>
      .cls-1 {
        fill: #0f1e43;
      }

      .cls-2 {
        fill: #bef264;
      }
    </style>
  </defs>
  <g>
    <path class="cls-1" d="M33.2,4.7h2.93l1.98,4.34v-4.34h2.22v8.4h-2.82l-2.09-4.58v4.58h-2.22V4.7Z"/>
    <path class="cls-1" d="M41.65,4.7h5.87v2.1h-3.65v1.04h3.17v2.1h-3.17v1.06h3.65v2.1h-5.87V4.7Z"/>
    <path class="cls-1" d="M53.36,13.1l-1.25-2.14-1.24,2.14h-2.58l2.53-4.36-2.35-4.04h2.58l1.18,2.02,1.16-2.02h2.58l-2.46,4.22,2.42,4.18h-2.58Z"/>
    <path class="cls-1" d="M58.87,6.8h-2.17v-2.1h6.55v2.1h-2.16v6.3h-2.22v-6.3Z"/>
    <path class="cls-1" d="M67.57,4.7h2.88c.53,0,1,.06,1.43.19.42.13.79.31,1.09.55.3.24.53.53.7.87.16.34.25.72.25,1.15s-.08.79-.25,1.13c-.16.34-.4.63-.7.87-.3.24-.66.43-1.09.56-.42.13-.9.2-1.43.2h-.66v2.88h-2.22V4.7ZM70.85,8.12c.25,0,.44-.05.58-.16.14-.1.2-.25.2-.44v-.19c0-.17-.07-.3-.2-.39-.14-.09-.33-.14-.58-.14h-1.06v1.32h1.06Z"/>
    <path class="cls-1" d="M74.69,8.9c0-.66.09-1.25.28-1.78s.45-.99.79-1.36c.34-.38.75-.67,1.24-.87.49-.2,1.03-.31,1.63-.31s1.14.1,1.63.31c.49.2.9.49,1.24.87.34.38.6.83.79,1.36s.28,1.13.28,1.78-.09,1.25-.28,1.78c-.19.53-.45.99-.79,1.36-.34.38-.75.67-1.24.87-.49.2-1.03.31-1.63.31s-1.14-.1-1.63-.31c-.49-.2-.9-.49-1.24-.87-.34-.38-.6-.83-.79-1.36-.19-.53-.28-1.13-.28-1.78ZM78.64,11.06c.51,0,.92-.17,1.22-.5.3-.33.45-.78.45-1.34v-.64c0-.57-.15-1.02-.45-1.35-.3-.33-.71-.5-1.22-.5s-.92.17-1.22.5c-.3.33-.45.78-.45,1.35v.64c0,.56.15,1.01.45,1.34.3.33.71.5,1.22.5Z"/>
    <path class="cls-2" d="M84.71,4.7h0c.61,0,1.11.5,1.11,1.11v6.18c0,.61-.5,1.11-1.11,1.11h0c-.61,0-1.11-.5-1.11-1.11v-6.18c0-.61.5-1.11,1.11-1.11Z"/>
    <path class="cls-1" d="M87.14,4.7h2.93l1.98,4.34v-4.34h2.22v8.4h-2.82l-2.09-4.58v4.58h-2.22V4.7Z"/>
    <path class="cls-1" d="M97.46,6.8h-2.17v-2.1h6.55v2.1h-2.16v6.3h-2.22v-6.3Z"/>
  </g>
  <g>
    <path class="cls-1" d="M35.83,17.67l1.92,5.6h-.38l-.47-1.37h-2.59l-.47,1.37h-.38l1.92-5.6h.46ZM36.79,21.58l-1.18-3.45h-.02l-1.18,3.45h2.38Z"/>
    <path class="cls-1" d="M43.78,20.47c0-.43.06-.82.17-1.17.11-.35.27-.65.47-.91s.45-.45.73-.59c.28-.14.59-.21.93-.21.3,0,.59.05.85.16s.49.25.69.44c.2.19.36.42.49.69.13.27.21.57.25.89h-.4c-.03-.27-.1-.52-.21-.74-.11-.22-.24-.42-.4-.58s-.35-.28-.56-.37c-.21-.09-.44-.13-.69-.13-.28,0-.53.06-.77.18-.23.12-.44.29-.61.51-.17.22-.3.48-.4.78s-.14.63-.14,1v.11c0,.36.05.69.14,1s.23.56.4.78c.17.22.37.39.61.51.23.12.49.18.77.18.25,0,.48-.04.69-.13.21-.09.4-.21.56-.37.16-.16.3-.35.4-.58.11-.22.18-.47.21-.74h.4c-.04.33-.12.62-.25.89s-.29.5-.49.69c-.2.19-.43.34-.69.44s-.54.16-.85.16c-.34,0-.65-.07-.93-.21-.28-.14-.53-.34-.73-.59-.2-.25-.36-.56-.47-.91-.11-.35-.17-.74-.17-1.17Z"/>
    <path class="cls-1" d="M56.85,17.67l1.92,5.6h-.38l-.47-1.37h-2.59l-.47,1.37h-.38l1.92-5.6h.46ZM57.81,21.58l-1.18-3.45h-.02l-1.18,3.45h2.38Z"/>
    <path class="cls-1" d="M65.16,17.67h1.46c.37,0,.7.06.99.19.29.13.54.31.74.55.2.24.36.53.47.88.11.34.16.73.16,1.17s-.05.83-.16,1.18c-.11.35-.27.65-.47.89s-.45.43-.74.56c-.29.13-.62.19-.99.19h-1.46v-5.6ZM68.59,20.45c0-.8-.18-1.41-.53-1.83s-.87-.63-1.55-.63h-.98v4.96h.98c.68,0,1.2-.21,1.55-.63.35-.42.53-1.03.53-1.83v-.03Z"/>
    <path class="cls-1" d="M75.46,17.67h3.35v.32h-2.99v2.31h2.67v.32h-2.67v2.33h2.99v.32h-3.35v-5.6Z"/>
    <path class="cls-1" d="M85.52,17.67h.39l2.09,5.12,2.08-5.12h.39v5.6h-.36v-4.71l-1.92,4.71h-.39l-1.92-4.71v4.71h-.36v-5.6Z"/>
    <path class="cls-1" d="M100.86,17.67h.39l-1.99,3.58v2.02h-.36v-2.02l-1.99-3.58h.39l1.78,3.15h.02l1.77-3.15Z"/>
  </g>
  <g>
    <circle class="cls-1" cx="84.71" cy="15.34" r="1.32"/>
    <rect class="cls-2" x="33.2" y="14.54" width="49.38" height="1.61" rx=".76" ry=".76"/>
    <rect class="cls-2" x="86.84" y="14.58" width="15" height="1.53" rx=".76" ry=".76"/>
  </g>
  <g>
    <path class="cls-1" d="M24.91,12.98c0,6.65-5.39,12.03-12.03,12.03v-.35c0-2.18,1.24-4.18,3.2-5.14h.03s4,1.04,4,1.04c.2.05.38-.13.33-.33l-1.07-3.94c.51-.99.8-2.12.8-3.32,0-2.76-1.54-5.17-3.81-6.4-2.07-1.12-3.47-3.17-3.47-5.52v-.11c6.65,0,12.03,5.39,12.03,12.03Z"/>
    <path class="cls-2" d="M.85,17.73c0,6.65,5.39,12.03,12.03,12.03v-.35c0-2.18-1.24-4.18-3.2-5.14h-.03s-4,1.04-4,1.04c-.2.05-.38-.13-.33-.33l1.07-3.94c-.51-.99-.8-2.12-.8-3.32,0-2.76,1.54-5.17,3.81-6.4,2.07-1.12,3.47-3.17,3.47-5.52v-.11c-6.65,0-12.03,5.39-12.03,12.03Z"/>
  </g>
</svg>