<?xml version="1.0" encoding="UTF-8"?>
<svg id="Layer_1" data-name="Layer 1" xmlns="http://www.w3.org/2000/svg" viewBox="0 0 20 20">
  <defs>
    <style>
      .cls-1 {
        fill: #0f1e43;
      }

      .cls-2 {
        fill: #a3e635;
      }
    </style>
  </defs>
  <path class="cls-1" d="M17.23,8.57c0,3.99-3.24,7.23-7.23,7.23v-.21c0-1.31.74-2.51,1.92-3.09h.02s2.4.63,2.4.63c.12.03.23-.08.2-.2l-.64-2.37c.31-.6.48-1.27.48-1.99,0-1.66-.93-3.1-2.29-3.85-1.24-.68-2.08-1.9-2.08-3.32v-.07c3.99,0,7.23,3.24,7.23,7.23Z"/>
  <path class="cls-2" d="M2.77,11.43c0,3.99,3.24,7.23,7.23,7.23v-.21c0-1.31-.74-2.51-1.92-3.09h-.02s-2.4.63-2.4.63c-.12.03-.23-.08-.2-.2l.64-2.37c-.31-.6-.48-1.27-.48-1.99,0-1.66.93-3.1,2.29-3.85,1.24-.68,2.08-1.9,2.08-3.32v-.07c-3.99,0-7.23,3.24-7.23,7.23Z"/>
</svg>